<?xml version="1.0" encoding="UTF-8"?>
<svg xmlns="http://www.w3.org/2000/svg" xmlns:xlink="http://www.w3.org/1999/xlink" width="15pt" height="15pt" viewBox="0 0 15 15" version="1.1">
<defs>
<filter id="alpha" filterUnits="objectBoundingBox" x="0%" y="0%" width="100%" height="100%">
  <feColorMatrix type="matrix" in="SourceGraphic" values="0 0 0 0 1 0 0 0 0 1 0 0 0 0 1 0 0 0 1 0"/>
</filter>
<mask id="mask0">
  <g filter="url(#alpha)">
<rect x="0" y="0" width="15" height="15" style="fill:rgb(0%,0%,0%);fill-opacity:0.921569;stroke:none;"/>
  </g>
</mask>
<clipPath id="clip1">
  <rect x="0" y="0" width="15" height="15"/>
</clipPath>
<g id="surface5" clip-path="url(#clip1)">
<path style=" stroke:none;fill-rule:nonzero;fill:rgb(6.666667%,16.862745%,0%);fill-opacity:1;" d="M 9.335938 8.585938 C 8.960938 8.378906 8.527344 8.261719 8.070312 8.261719 L 6.976562 8.261719 C 6.503906 8.261719 6.058594 8.386719 5.675781 8.601562 C 4.867188 9.058594 4.324219 9.921875 4.324219 10.917969 L 4.324219 11.734375 L 10.722656 11.734375 L 10.722656 10.917969 C 10.722656 9.910156 10.164062 9.035156 9.335938 8.585938 Z M 9.335938 8.585938 "/>
</g>
<mask id="mask1">
  <g filter="url(#alpha)">
<rect x="0" y="0" width="15" height="15" style="fill:rgb(0%,0%,0%);fill-opacity:0.921569;stroke:none;"/>
  </g>
</mask>
<clipPath id="clip2">
  <rect x="0" y="0" width="15" height="15"/>
</clipPath>
<g id="surface8" clip-path="url(#clip2)">
<path style=" stroke:none;fill-rule:nonzero;fill:rgb(6.666667%,16.862745%,0%);fill-opacity:1;" d="M 12.355469 7.535156 L 11.445312 7.535156 C 10.914062 7.535156 10.421875 7.691406 10.007812 7.960938 C 10.207031 8.09375 10.394531 8.246094 10.566406 8.417969 C 11.234375 9.085938 11.601562 9.972656 11.601562 10.917969 L 11.601562 11.300781 L 15 11.300781 L 15 10.179688 C 15 8.722656 13.8125 7.535156 12.355469 7.535156 Z M 12.355469 7.535156 "/>
</g>
<mask id="mask2">
  <g filter="url(#alpha)">
<rect x="0" y="0" width="15" height="15" style="fill:rgb(0%,0%,0%);fill-opacity:0.921569;stroke:none;"/>
  </g>
</mask>
<clipPath id="clip3">
  <rect x="0" y="0" width="15" height="15"/>
</clipPath>
<g id="surface11" clip-path="url(#clip3)">
<path style=" stroke:none;fill-rule:nonzero;fill:rgb(6.666667%,16.862745%,0%);fill-opacity:1;" d="M 3.554688 7.535156 L 2.644531 7.535156 C 1.1875 7.535156 0 8.722656 0 10.179688 L 0 11.300781 L 3.445312 11.300781 L 3.445312 10.917969 C 3.445312 9.972656 3.8125 9.085938 4.476562 8.417969 C 4.644531 8.253906 4.824219 8.105469 5.015625 7.976562 C 4.597656 7.699219 4.09375 7.535156 3.554688 7.535156 Z M 3.554688 7.535156 "/>
</g>
<mask id="mask3">
  <g filter="url(#alpha)">
<rect x="0" y="0" width="15" height="15" style="fill:rgb(0%,0%,0%);fill-opacity:0.921569;stroke:none;"/>
  </g>
</mask>
<clipPath id="clip4">
  <rect x="0" y="0" width="15" height="15"/>
</clipPath>
<g id="surface14" clip-path="url(#clip4)">
<path style=" stroke:none;fill-rule:nonzero;fill:rgb(6.666667%,16.862745%,0%);fill-opacity:1;" d="M 11.898438 3.558594 C 11.894531 3.558594 11.890625 3.558594 11.886719 3.558594 C 10.902344 3.566406 10.109375 4.414062 10.117188 5.453125 C 10.125 6.484375 10.925781 7.316406 11.902344 7.316406 C 11.90625 7.316406 11.910156 7.316406 11.914062 7.316406 C 12.398438 7.3125 12.847656 7.109375 13.183594 6.746094 C 13.507812 6.386719 13.6875 5.917969 13.683594 5.421875 C 13.675781 4.390625 12.875 3.558594 11.898438 3.558594 Z M 11.898438 3.558594 "/>
</g>
<mask id="mask4">
  <g filter="url(#alpha)">
<rect x="0" y="0" width="15" height="15" style="fill:rgb(0%,0%,0%);fill-opacity:0.921569;stroke:none;"/>
  </g>
</mask>
<clipPath id="clip5">
  <rect x="0" y="0" width="15" height="15"/>
</clipPath>
<g id="surface17" clip-path="url(#clip5)">
<path style=" stroke:none;fill-rule:nonzero;fill:rgb(6.666667%,16.862745%,0%);fill-opacity:1;" d="M 3.097656 3.558594 C 3.09375 3.558594 3.089844 3.558594 3.085938 3.558594 C 2.101562 3.566406 1.308594 4.414062 1.316406 5.453125 C 1.324219 6.484375 2.125 7.316406 3.101562 7.316406 C 3.105469 7.316406 3.109375 7.316406 3.113281 7.316406 C 3.597656 7.3125 4.046875 7.109375 4.382812 6.746094 C 4.707031 6.386719 4.886719 5.917969 4.882812 5.421875 C 4.875 4.390625 4.074219 3.558594 3.097656 3.558594 Z M 3.097656 3.558594 "/>
</g>
<mask id="mask5">
  <g filter="url(#alpha)">
<rect x="0" y="0" width="15" height="15" style="fill:rgb(0%,0%,0%);fill-opacity:0.921569;stroke:none;"/>
  </g>
</mask>
<clipPath id="clip6">
  <rect x="0" y="0" width="15" height="15"/>
</clipPath>
<g id="surface20" clip-path="url(#clip6)">
<path style=" stroke:none;fill-rule:nonzero;fill:rgb(6.666667%,16.862745%,0%);fill-opacity:1;" d="M 7.523438 3.265625 C 6.390625 3.265625 5.46875 4.238281 5.46875 5.4375 C 5.46875 6.300781 5.949219 7.050781 6.644531 7.398438 C 6.910156 7.535156 7.207031 7.609375 7.523438 7.609375 C 7.835938 7.609375 8.132812 7.535156 8.402344 7.398438 C 9.097656 7.050781 9.578125 6.300781 9.578125 5.4375 C 9.578125 4.238281 8.65625 3.265625 7.523438 3.265625 Z M 7.523438 3.265625 "/>
</g>
</defs>
<g id="surface1">
<use xlink:href="#surface5" mask="url(#mask0)"/>
<use xlink:href="#surface8" mask="url(#mask1)"/>
<use xlink:href="#surface11" mask="url(#mask2)"/>
<use xlink:href="#surface14" mask="url(#mask3)"/>
<use xlink:href="#surface17" mask="url(#mask4)"/>
<use xlink:href="#surface20" mask="url(#mask5)"/>
</g>
</svg>
