<?xml version="1.0" encoding="UTF-8"?>
<svg xmlns="http://www.w3.org/2000/svg" xmlns:xlink="http://www.w3.org/1999/xlink" width="10pt" height="10pt" viewBox="0 0 10 10" version="1.1">
<defs>
<filter id="alpha" filterUnits="objectBoundingBox" x="0%" y="0%" width="100%" height="100%">
  <feColorMatrix type="matrix" in="SourceGraphic" values="0 0 0 0 1 0 0 0 0 1 0 0 0 0 1 0 0 0 1 0"/>
</filter>
<mask id="mask0">
  <g filter="url(#alpha)">
<rect x="0" y="0" width="10" height="10" style="fill:rgb(0%,0%,0%);fill-opacity:0.921569;stroke:none;"/>
  </g>
</mask>
<clipPath id="clip1">
  <rect width="10" height="10"/>
</clipPath>
<g id="surface6" clip-path="url(#clip1)">
<path style=" stroke:none;fill-rule:nonzero;fill:rgb(6.666667%,16.862745%,0%);fill-opacity:1;" d="M 4.929688 4.816406 C 5.589844 4.816406 6.164062 4.578125 6.632812 4.113281 C 7.101562 3.644531 7.335938 3.070312 7.335938 2.410156 C 7.335938 1.746094 7.101562 1.175781 6.632812 0.707031 C 6.164062 0.238281 5.589844 0 4.929688 0 C 4.265625 0 3.695312 0.238281 3.226562 0.707031 C 2.757812 1.171875 2.519531 1.746094 2.519531 2.410156 C 2.519531 3.070312 2.757812 3.644531 3.226562 4.113281 C 3.695312 4.578125 4.265625 4.816406 4.929688 4.816406 Z M 4.929688 4.816406 "/>
</g>
<mask id="mask1">
  <g filter="url(#alpha)">
<rect x="0" y="0" width="10" height="10" style="fill:rgb(0%,0%,0%);fill-opacity:0.921569;stroke:none;"/>
  </g>
</mask>
<clipPath id="clip2">
  <rect width="10" height="10"/>
</clipPath>
<g id="surface9" clip-path="url(#clip2)">
<path style=" stroke:none;fill-rule:nonzero;fill:rgb(6.666667%,16.862745%,0%);fill-opacity:1;" d="M 9.144531 7.691406 C 9.128906 7.496094 9.101562 7.28125 9.0625 7.058594 C 9.023438 6.832031 8.96875 6.617188 8.90625 6.421875 C 8.84375 6.21875 8.753906 6.019531 8.644531 5.828125 C 8.53125 5.632812 8.398438 5.457031 8.25 5.316406 C 8.097656 5.167969 7.90625 5.046875 7.6875 4.960938 C 7.464844 4.875 7.222656 4.832031 6.964844 4.832031 C 6.863281 4.832031 6.761719 4.871094 6.574219 4.996094 C 6.453125 5.074219 6.316406 5.160156 6.164062 5.257812 C 6.035156 5.34375 5.855469 5.421875 5.636719 5.492188 C 5.421875 5.5625 5.207031 5.597656 4.992188 5.597656 C 4.777344 5.597656 4.558594 5.5625 4.347656 5.492188 C 4.128906 5.421875 3.949219 5.34375 3.820312 5.257812 C 3.667969 5.164062 3.53125 5.074219 3.410156 4.996094 C 3.21875 4.871094 3.121094 4.832031 3.019531 4.832031 C 2.757812 4.832031 2.515625 4.875 2.296875 4.960938 C 2.078125 5.046875 1.886719 5.167969 1.730469 5.316406 C 1.582031 5.457031 1.449219 5.632812 1.335938 5.828125 C 1.230469 6.019531 1.140625 6.21875 1.078125 6.421875 C 1.015625 6.617188 0.960938 6.832031 0.921875 7.058594 C 0.882812 7.28125 0.855469 7.496094 0.839844 7.691406 C 0.828125 7.882812 0.820312 8.078125 0.820312 8.28125 C 0.820312 8.800781 0.984375 9.226562 1.3125 9.535156 C 1.636719 9.84375 2.0625 10 2.585938 10 L 7.398438 10 C 7.917969 10 8.347656 9.84375 8.671875 9.535156 C 8.996094 9.226562 9.164062 8.800781 9.164062 8.28125 C 9.164062 8.078125 9.15625 7.878906 9.144531 7.691406 Z M 9.144531 7.691406 "/>
</g>
</defs>
<g id="surface1">
<use xlink:href="#surface6" mask="url(#mask0)"/>
<use xlink:href="#surface9" mask="url(#mask1)"/>
</g>
</svg>